<svg width="37" height="33" viewBox="0 0 37 33" fill="none" xmlns="http://www.w3.org/2000/svg">
<path d="M16.1129 32.1811C15.8777 32.1823 15.6446 32.1364 15.4274 32.0462C15.2101 31.956 15.013 31.8234 14.8478 31.656L0.525172 17.3334C0.189904 16.9977 0.00158691 16.5427 0.00158691 16.0682C0.00158691 15.5938 0.189904 15.1388 0.525172 14.8031L14.8478 0.480502C15.1871 0.16426 15.636 -0.00790456 16.0998 0.000278926C16.5637 0.00846241 17.0062 0.196355 17.3342 0.524373C17.6622 0.852391 17.8501 1.29492 17.8583 1.75874C17.8665 2.22255 17.6943 2.67144 17.3781 3.01083L4.32066 16.0682L17.3781 29.1257C17.7133 29.4613 17.9017 29.9164 17.9017 30.3908C17.9017 30.8653 17.7133 31.3203 17.3781 31.656C17.2128 31.8234 17.0157 31.956 16.7985 32.0462C16.5812 32.1364 16.3481 32.1823 16.1129 32.1811Z" fill="white"/>
<path d="M35.2097 17.8586H1.79032C1.3155 17.8586 0.860124 17.6699 0.524373 17.3342C0.188623 16.9984 0 16.5431 0 16.0682C0 15.5934 0.188623 15.138 0.524373 14.8023C0.860124 14.4665 1.3155 14.2779 1.79032 14.2779H35.2097C35.6845 14.2779 36.1399 14.4665 36.4756 14.8023C36.8114 15.138 37 15.5934 37 16.0682C37 16.5431 36.8114 16.9984 36.4756 17.3342C36.1399 17.6699 35.6845 17.8586 35.2097 17.8586Z" fill="white"/>
</svg>
