<svg width="216" height="191" viewBox="0 0 216 191" fill="none" xmlns="http://www.w3.org/2000/svg">
<path d="M182.057 191H33.9429C24.9407 191 16.3072 187.176 9.94163 180.368C3.57611 173.561 0 164.328 0 154.701V75.5024C0 65.8753 3.57611 56.6424 9.94163 49.835C16.3072 43.0275 24.9407 39.2032 33.9429 39.2032H41.3486L55.9131 16.1037C59.0293 11.1474 63.237 7.08641 68.1658 4.27826C73.0947 1.4701 78.5936 0.000897659 84.1783 0H131.822C137.406 0.000897659 142.905 1.4701 147.834 4.27826C152.763 7.08641 156.971 11.1474 160.087 16.1037L174.651 39.2032H182.057C191.059 39.2032 199.693 43.0275 206.058 49.835C212.424 56.6424 216 65.8753 216 75.5024V154.701C216 164.328 212.424 173.561 206.058 180.368C199.693 187.176 191.059 191 182.057 191ZM33.9429 59.0028C29.8509 59.0028 25.9266 60.7411 23.0332 63.8354C20.1398 66.9297 18.5143 71.1264 18.5143 75.5024V154.701C18.5143 159.077 20.1398 163.274 23.0332 166.368C25.9266 169.462 29.8509 171.2 33.9429 171.2H182.057C186.149 171.2 190.073 169.462 192.967 166.368C195.86 163.274 197.486 159.077 197.486 154.701V75.5024C197.486 71.1264 195.86 66.9297 192.967 63.8354C190.073 60.7411 186.149 59.0028 182.057 59.0028H169.714C168.203 58.9998 166.716 58.6013 165.382 57.842C164.048 57.0827 162.908 55.9857 162.062 54.6469L145.029 26.7954C143.679 24.5922 141.852 22.7698 139.704 21.483C137.555 20.1961 135.147 19.4828 132.686 19.4036H84.1783C81.7166 19.4828 79.3092 20.1961 77.1604 21.483C75.0116 22.7698 73.1849 24.5922 71.8354 26.7954L53.9383 54.6469C53.0921 55.9857 51.9522 57.0827 50.6183 57.842C49.2843 58.6013 47.7968 58.9998 46.2857 59.0028H33.9429Z" fill="#2C2559"/>
<path d="M108 151.401C100.066 151.401 92.3105 148.885 85.7137 144.171C79.117 139.457 73.9754 132.757 70.9393 124.919C67.9031 117.08 67.1087 108.454 68.6565 100.133C70.2044 91.811 74.0249 84.1671 79.635 78.1675C85.2451 72.168 92.3927 68.0822 100.174 66.427C107.956 64.7717 116.021 65.6212 123.351 68.8682C130.681 72.1151 136.946 77.6136 141.354 84.6683C145.762 91.723 148.114 100.017 148.114 108.502C148.082 119.869 143.845 130.76 136.329 138.798C128.813 146.835 118.629 151.366 108 151.401ZM108 85.4023C103.728 85.4023 99.5518 86.757 95.9997 89.2952C92.4476 91.8334 89.6791 95.4411 88.0443 99.662C86.4094 103.883 85.9816 108.527 86.8151 113.008C87.6485 117.489 89.7057 121.605 92.7265 124.836C95.7474 128.066 99.5961 130.266 103.786 131.157C107.976 132.049 112.319 131.591 116.266 129.843C120.213 128.095 123.586 125.134 125.96 121.335C128.333 117.536 129.6 113.07 129.6 108.502C129.568 102.386 127.282 96.5307 123.238 92.2062C119.194 87.8817 113.719 85.4369 108 85.4023Z" fill="#2C2559"/>
</svg>
