<svg width="116" height="183" viewBox="0 0 116 183" fill="none" xmlns="http://www.w3.org/2000/svg">
<path d="M54.8254 129.353H61.0738C75.9896 129.353 87.9826 117.02 87.9826 101.778V27.5753C87.9826 12.3337 75.8888 0 61.0738 0H54.8254C39.9096 0 27.9166 12.3337 27.9166 27.5753V101.678C27.9166 116.919 40.0104 129.253 54.8254 129.253V129.353ZM43.0339 27.5753C43.0339 20.6564 48.3753 15.0411 54.8254 15.0411H61.0738C67.6247 15.0411 72.8653 20.6564 72.8653 27.5753V101.678C72.8653 108.597 67.5239 114.212 61.0738 114.212H54.8254C48.2745 114.212 43.0339 108.597 43.0339 101.678V27.5753ZM115.899 61.5682V103.984C115.899 132.161 93.5256 155.024 65.5082 156.427V175.479C65.5082 179.591 62.0817 183 57.9496 183C53.8175 183 50.391 179.591 50.391 175.479V156.427C22.3736 155.024 0 132.161 0 103.984V61.5682C0 57.457 3.42659 54.0477 7.55864 54.0477C11.6907 54.0477 15.1173 57.457 15.1173 61.5682V103.984C15.1173 124.741 32.1494 141.687 53.1121 141.687H62.8879C83.8506 141.687 100.883 124.741 100.883 103.984V61.5682C100.883 57.457 104.309 54.0477 108.441 54.0477C112.573 54.0477 116 57.457 116 61.5682H115.899Z" fill="#2D2659"/>
</svg>
